<svg id="Blog" xmlns="http://www.w3.org/2000/svg" viewBox="0 0 109.5 97">
	<defs>
		<style>.cls-1,.white{fill:#fff;}.cls-1,.cls-2,.cls-3,.cls-6,.cls-7,.cls-8{stroke:#525b6b;}.cls-1,.cls-2,.cls-3,.cls-4,.cls-6,.cls-7,.cls-8{stroke-miterlimit:10;}.cls-2{fill:#efefef;}.cls-3{fill:#7fe5a1;}.cls-4{fill:none;stroke:#6e7682;}.cls-5{font-size:5px;fill:#525b6b;font-family:Dosis Bold;font-weight:700;}.cls-6{fill:#87d37c;}.cls-7{fill:#f5d76e;}.cls-8{fill:#f64747;}</style>
	</defs>
	<title>blog2</title>
	<g data-name="Blog 2">
		<g id="Body">
			<path id="Placeholder" class="cls-1 white" d="M0.5,12.5H109a0,0,0,0,1,0,0v83a1,1,0,0,1-1,1H1.5a1,1,0,0,1-1-1v-83A0,0,0,0,1,.5,12.5Z"/>
			<g data-name="Article 2">
				<rect class="cls-2" x="8.63" y="58.35" width="30.23" height="30.23"/>
				<line class="cls-4" x1="47.75" y1="63" x2="95.75" y2="63"/>
				<line class="cls-4" x1="47.75" y1="79" x2="95.75" y2="79"/>
				<line class="cls-4" x1="47.75" y1="69" x2="91.75" y2="69"/>
				<line class="cls-4" x1="47.75" y1="85" x2="91.75" y2="85"/>
				<line class="cls-4" x1="47.75" y1="74" x2="74.75" y2="74"/>
			</g>
			<g data-name="Article 1">
				<rect class="cls-2" x="8.63" y="22.35" width="30.23" height="30.23"/>
				<line class="cls-4" x1="47.75" y1="27" x2="95.75" y2="27"/>
				<line class="cls-4" x1="47.75" y1="43" x2="95.75" y2="43"/>
				<line class="cls-4" x1="47.75" y1="33" x2="91.75" y2="33"/>
				<line class="cls-4" x1="47.75" y1="49" x2="91.75" y2="49"/>
				<line class="cls-4" x1="47.75" y1="38" x2="74.75" y2="38"/>
			</g>
		</g>
		<g id="Header">
			<path id="Placeholder-2" data-name="Placeholder" class="cls-1 white" d="M3.5,0.5H106a3,3,0,0,1,3,3v9a0,0,0,0,1,0,0H0.5a0,0,0,0,1,0,0v-9A3,3,0,0,1,3.5.5Z"/>
			<g>
				<text class="cls-5" transform="translate(43.49 8.41)">A<tspan x="3.26" y="0">R</tspan><tspan x="6.19" y="0">TICLES</tspan>
				</text>
			</g>
			<g data-name="Circle Buttons">
				<circle class="cls-6" cx="15.92" cy="6.5" r="2.42"/>
				<circle class="cls-7" cx="9.08" cy="6.5" r="2.42"/>
				<circle class="cls-8" cx="22.92" cy="6.5" r="2.42"/>
			</g>
		</g>
	</g>
</svg>