<svg id="Features" xmlns="http://www.w3.org/2000/svg" viewBox="0 0 109.5 97"><defs><style>.cls-1{fill:#fff;}.cls-1,.cls-2,.cls-3,.cls-6,.cls-7,.cls-8{stroke:#525b6b;}.cls-1,.cls-2,.cls-3,.cls-4,.cls-6,.cls-7,.cls-8{stroke-miterlimit:10;}.cls-2{fill:#efefef;}.cls-3{fill:#7fe5a1;}.cls-4{fill:none;stroke:#6e7682;}.cls-5{font-size:5px;fill:#525b6b;font-family:Dosis Bold;font-weight:700;}.cls-6{fill:#f64747;}.cls-7{fill:#f5d76e;}.cls-8{fill:#87d37c;}</style></defs><title>feature2</title><g id="Features_2" data-name="Features 2"><g id="Body"><path id="Placeholder" class="cls-1" d="M0.5,12.5H109a0,0,0,0,1,0,0v83a1,1,0,0,1-1,1H1.5a1,1,0,0,1-1-1v-83A0,0,0,0,1,.5,12.5Z"/><g id="Feature_2" data-name="Feature 2"><circle class="cls-2" cx="84.63" cy="73.38" r="14.13"/><path class="cls-3" d="M277.89,246h-20a0.17,0.17,0,0,1-.14-0.27l3.7-5.48a0.34,0.34,0,0,1,.54,0l3.69,4.15a0.17,0.17,0,0,0,.27,0l5.6-8.39a0.34,0.34,0,0,1,.58,0l5.93,9.78A0.17,0.17,0,0,1,277.89,246Z" transform="translate(-183.25 -167.5)"/><line class="cls-4" x1="61.75" y1="69" x2="13.75" y2="69"/><line class="cls-4" x1="61.75" y1="75" x2="17.75" y2="75"/><line class="cls-4" x1="61.75" y1="81" x2="34.75" y2="81"/></g><g id="Feature_1" data-name="Feature 1"><circle class="cls-2" cx="24.63" cy="35.63" r="14.13"/><path class="cls-3" d="M217.89,208.23h-20a0.17,0.17,0,0,1-.14-0.27l3.7-5.48a0.34,0.34,0,0,1,.54,0l3.69,4.15a0.17,0.17,0,0,0,.27,0l5.6-8.39a0.34,0.34,0,0,1,.58,0L218,208A0.17,0.17,0,0,1,217.89,208.23Z" transform="translate(-183.25 -167.5)"/><line class="cls-4" x1="47.75" y1="31" x2="95.75" y2="31"/><line class="cls-4" x1="47.75" y1="37" x2="91.75" y2="37"/><line class="cls-4" x1="47.75" y1="43" x2="74.75" y2="43"/></g></g><g id="Header"><path id="Placeholder-2" data-name="Placeholder" class="cls-1" d="M3.5,0.5H106a3,3,0,0,1,3,3v9a0,0,0,0,1,0,0H0.5a0,0,0,0,1,0,0v-9A3,3,0,0,1,3.5.5Z"/><g id="Features-2" data-name="Features"><text class="cls-5" transform="translate(43.49 8.41)">FE<tspan x="5.29" y="0">A</tspan><tspan x="8.17" y="0">TURES</tspan></text></g><g id="Circle_Buttons" data-name="Circle Buttons"><circle class="cls-6" cx="22.92" cy="6.5" r="2.42"/><circle class="cls-7" cx="9.08" cy="6.5" r="2.42"/><circle class="cls-8" cx="15.92" cy="6.5" r="2.42"/></g></g></g></svg>