<svg id="Headers" xmlns="http://www.w3.org/2000/svg" viewBox="0 0 109.5 97.07"><defs><style>.cls-1{fill:#fff;}.cls-1,.cls-3,.cls-4,.cls-5,.cls-7,.cls-8,.cls-9{stroke:#525b6b;}.cls-1,.cls-3,.cls-4,.cls-5,.cls-6,.cls-7,.cls-8,.cls-9{stroke-miterlimit:10;}.cls-2{font-size:5px;fill:#525b6b;font-family:Dosis Bold;font-weight:700;}.cls-3{fill:#87d37c;}.cls-4{fill:#f5d76e;}.cls-5{fill:#f64747;}.cls-6,.cls-9{fill:none;}.cls-6{stroke:#6e7682;}.cls-7{fill:#efefef;}.cls-8{fill:#7fe5a1;}.cls-9{stroke-width:2px;}</style></defs><title>homepage2</title><g id="header_2" data-name="header 2"><g id="Header"><path id="Placeholder" class="cls-1" d="M3.5,0.5H106a3,3,0,0,1,3,3v9a0,0,0,0,1,0,0H0.5a0,0,0,0,1,0,0v-9A3,3,0,0,1,3.5.5Z"/><text class="cls-2" transform="translate(45.49 8.41)">HEADER</text><g id="Circle_Buttons" data-name="Circle Buttons"><circle class="cls-3" cx="15.92" cy="6.5" r="2.42"/><circle class="cls-4" cx="9.08" cy="6.5" r="2.42"/><circle class="cls-5" cx="22.92" cy="6.5" r="2.42"/></g></g><g id="Body"><g id="Placeholder-2" data-name="Placeholder"><path class="cls-1" d="M0.53,12.5H109a0,0,0,0,1,0,0V95.57a1,1,0,0,1-1,1H1.53a1,1,0,0,1-1-1V12.5A0,0,0,0,1,.53,12.5Z"/></g><g id="description"><line class="cls-6" x1="67.26" y1="85.5" x2="88.36" y2="85.5"/><line class="cls-6" x1="21.14" y1="85.5" x2="64.41" y2="85.5"/></g><g id="Image"><rect class="cls-7" x="7.75" y="31.5" width="94" height="47" rx="1" ry="1"/><path class="cls-8" d="M266.11,104.5H207.94a0.5,0.5,0,0,1-.41-0.78L218.28,87.8a1,1,0,0,1,1.58-.11l10.71,12a0.5,0.5,0,0,0,.79-0.05l16.27-24.37a1,1,0,0,1,1.69,0l17.22,28.4A0.5,0.5,0,0,1,266.11,104.5Z" transform="translate(-182.25 -35.5)"/></g><g id="Menu"><line class="cls-9" x1="59.75" y1="24.5" x2="71.75" y2="24.5"/><line class="cls-9" x1="73.75" y1="24.5" x2="87.75" y2="24.5"/><line class="cls-9" x1="89.75" y1="24.5" x2="101.75" y2="24.5"/></g><g id="Logo"><line class="cls-9" x1="7.75" y1="24.5" x2="19.75" y2="24.5"/></g></g></g></svg>