<svg id="Headers" xmlns="http://www.w3.org/2000/svg" viewBox="0 0 109.5 97.07"><defs><style>.cls-1{fill:#fff;}.cls-1,.cls-3,.cls-4,.cls-5,.cls-6,.cls-8{stroke:#525b6b;}.cls-1,.cls-3,.cls-4,.cls-5,.cls-6,.cls-7,.cls-8{stroke-miterlimit:10;}.cls-2{font-size:5px;fill:#525b6b;font-family:Dosis Bold;font-weight:700;}.cls-3{fill:#87d37c;}.cls-4{fill:#f5d76e;}.cls-5{fill:#f64747;}.cls-6{fill:#e56161;}.cls-7,.cls-8{fill:none;}.cls-7{stroke:#6e7682;}.cls-8{stroke-width:2px;}</style></defs><title>homepage4</title><g id="Header_4" data-name="Header 4"><g id="Header"><path id="Placeholder" class="cls-1" d="M3.5,0.5H106a3,3,0,0,1,3,3v9a0,0,0,0,1,0,0H0.5a0,0,0,0,1,0,0v-9A3,3,0,0,1,3.5.5Z"/><g id="Header-2" data-name="Header"><text class="cls-2" transform="translate(45.49 8.41)">HEADER</text></g><g id="Circle_Buttons" data-name="Circle Buttons"><circle class="cls-3" cx="15.92" cy="6.5" r="2.42"/><circle class="cls-4" cx="9.08" cy="6.5" r="2.42"/><circle class="cls-5" cx="22.92" cy="6.5" r="2.42"/></g></g><g id="Body"><g id="Placeholder-2" data-name="Placeholder"><path class="cls-6" d="M0.5,12.5H109a0,0,0,0,1,0,0V95.57a1,1,0,0,1-1,1H1.5a1,1,0,0,1-1-1V12.5A0,0,0,0,1,.5,12.5Z"/></g><g id="Play_Icon" data-name="Play Icon"><path class="cls-1" d="M520,99.83V93.17c0-.91,1.26-1.47,2.27-1l7.45,3.33,7.43,3.33a1.07,1.07,0,0,1,0,2l-7.43,3.33-7.44,3.33c-1,.45-2.27-0.11-2.27-1V99.83Z" transform="translate(-474.5 -35.5)"/></g><g id="Text"><line class="cls-7" x1="39.5" y1="45" x2="69.5" y2="45"/><line class="cls-7" x1="29.5" y1="38" x2="79.5" y2="38"/></g><g id="Menu"><line class="cls-8" x1="73.5" y1="23.5" x2="87.5" y2="23.5"/><line class="cls-8" x1="89.5" y1="23.5" x2="101.5" y2="23.5"/><line class="cls-8" x1="59.5" y1="23.5" x2="71.5" y2="23.5"/></g><g id="Logo"><line class="cls-8" x1="7.5" y1="23.5" x2="19.5" y2="23.5"/></g></g></g></svg>