<svg id="Article" xmlns="http://www.w3.org/2000/svg" viewBox="0 0 109.5 97"><defs><style>.cls-1{fill:#fff;}.cls-1,.cls-3,.cls-5,.cls-6,.cls-7{stroke:#525b6b;}.cls-1,.cls-2,.cls-3,.cls-5,.cls-6,.cls-7{stroke-miterlimit:10;}.cls-2,.cls-3{fill:none;}.cls-2{stroke:#6e7682;}.cls-3{stroke-width:2px;}.cls-4{font-size:5px;fill:#525b6b;font-family:Dosis Bold;font-weight:700;}.cls-5{fill:#f64747;}.cls-6{fill:#f5d76e;}.cls-7{fill:#87d37c;}</style></defs><title>article1</title><g id="Article_1" data-name="Article 1"><g id="Body"><path id="Placeholder" class="cls-1" d="M0.5,12.5H109a0,0,0,0,1,0,0v83a1,1,0,0,1-1,1H1.5a1,1,0,0,1-1-1v-83A0,0,0,0,1,.5,12.5Z"/><g id="Menu"><line class="cls-2" x1="74.5" y1="24" x2="90.5" y2="24"/><line class="cls-2" x1="74.5" y1="41" x2="93.5" y2="41"/><line class="cls-2" x1="74.5" y1="30" x2="97.5" y2="30"/><line class="cls-2" x1="74.5" y1="47" x2="87.5" y2="47"/><line class="cls-2" x1="74.5" y1="35" x2="90.5" y2="35"/><line class="cls-2" x1="74.5" y1="53" x2="90.5" y2="53"/><line class="cls-2" x1="74.5" y1="59" x2="84.5" y2="59"/></g><g id="Text"><line class="cls-2" x1="11.5" y1="42" x2="59.5" y2="42"/><line class="cls-2" x1="11.5" y1="30" x2="55.5" y2="30"/><line class="cls-2" x1="11.5" y1="48" x2="55.5" y2="48"/><line class="cls-2" x1="11.5" y1="36" x2="38.5" y2="36"/><line class="cls-2" x1="11.5" y1="54" x2="59.5" y2="54"/><line class="cls-2" x1="11.5" y1="66" x2="59.5" y2="66"/><line class="cls-2" x1="11.5" y1="60" x2="55.5" y2="60"/><line class="cls-2" x1="11.5" y1="72" x2="55.5" y2="72"/><line class="cls-2" x1="11.5" y1="84" x2="59.5" y2="84"/><line class="cls-2" x1="11.5" y1="78" x2="38.5" y2="78"/><g id="Title"><line class="cls-3" x1="11.5" y1="23.5" x2="59.5" y2="23.5"/></g></g></g><g id="Header"><path id="Placeholder-2" data-name="Placeholder" class="cls-1" d="M3.5,0.5H106a3,3,0,0,1,3,3v9a0,0,0,0,1,0,0H0.5a0,0,0,0,1,0,0v-9A3,3,0,0,1,3.5.5Z"/><g id="Article-2" data-name="Article"><text class="cls-4" transform="translate(43.49 8.41)">A<tspan x="3.26" y="0">R</tspan><tspan x="6.19" y="0">TICLE</tspan></text></g><g id="Circle_Buttons" data-name="Circle Buttons"><circle class="cls-5" cx="22.92" cy="6.5" r="2.42"/><circle class="cls-6" cx="9.08" cy="6.5" r="2.42"/><circle class="cls-7" cx="15.92" cy="6.5" r="2.42"/></g></g></g></svg>