<svg id="Features" xmlns="http://www.w3.org/2000/svg" viewBox="0 0 109.5 97"><defs><style>.cls-1{fill:#fff;}.cls-1,.cls-2,.cls-3,.cls-6,.cls-7,.cls-8{stroke:#525b6b;}.cls-1,.cls-2,.cls-3,.cls-4,.cls-6,.cls-7,.cls-8{stroke-miterlimit:10;}.cls-2{fill:#ea7171;}.cls-3{fill:#d6d6d6;}.cls-4{fill:none;stroke:#6e7682;}.cls-5{font-size:5px;fill:#525b6b;font-family:Dosis Bold;font-weight:700;}.cls-6{fill:#87d37c;}.cls-7{fill:#f5d76e;}.cls-8{fill:#f64747;}</style></defs><title>feature1</title><g id="Features_1" data-name="Features 1"><g id="Body"><g id="Placeholder"><path class="cls-1" d="M0.5,12.5H109a0,0,0,0,1,0,0v83a1,1,0,0,1-1,1H1.5a1,1,0,0,1-1-1v-83a0,0,0,0,1,0,0Z"/></g><g id="Button"><rect class="cls-2" x="40.5" y="80" width="26" height="6" rx="0.96" ry="0.96"/></g><g id="Feature_3" data-name="Feature 3"><circle class="cls-3" cx="87.43" cy="30.57" r="8.07"/><line class="cls-4" x1="76.5" y1="46" x2="98.5" y2="46"/><line class="cls-4" x1="79.5" y1="50" x2="95.5" y2="50"/><line class="cls-4" x1="79.5" y1="58" x2="95.5" y2="58"/><line class="cls-4" x1="77.5" y1="54" x2="97.5" y2="54"/><line class="cls-4" x1="81.5" y1="62" x2="93.5" y2="62"/></g><g id="Feature_2" data-name="Feature 2"><circle class="cls-3" cx="53.56" cy="30.57" r="8.07"/><line class="cls-4" x1="42.5" y1="46" x2="64.5" y2="46"/><line class="cls-4" x1="45.5" y1="50" x2="61.5" y2="50"/><line class="cls-4" x1="45.5" y1="58" x2="61.5" y2="58"/><line class="cls-4" x1="43.5" y1="54" x2="63.5" y2="54"/><line class="cls-4" x1="47.5" y1="62" x2="59.5" y2="62"/></g><g id="Feature_1" data-name="Feature 1"><line class="cls-4" x1="11.5" y1="46" x2="33.5" y2="46"/><line class="cls-4" x1="14.5" y1="50" x2="30.5" y2="50"/><line class="cls-4" x1="14.5" y1="58" x2="30.5" y2="58"/><line class="cls-4" x1="12.5" y1="54" x2="32.5" y2="54"/><line class="cls-4" x1="16.5" y1="62" x2="28.5" y2="62"/><circle class="cls-3" cx="22.57" cy="30.57" r="8.07"/></g></g><g id="Header"><path id="Placeholder-2" data-name="Placeholder" class="cls-1" d="M3.5,0.5H106a3,3,0,0,1,3,3v9a0,0,0,0,1,0,0H0.5a0,0,0,0,1,0,0v-9A3,3,0,0,1,3.5.5Z"/><g id="Features-2" data-name="Features"><text class="cls-5" transform="translate(43.49 8.41)">FE<tspan x="5.29" y="0">A</tspan><tspan x="8.17" y="0">TURES</tspan></text></g><g id="Circle_Buttons" data-name="Circle Buttons"><circle class="cls-6" cx="15.92" cy="6.5" r="2.42"/><circle class="cls-7" cx="9.08" cy="6.5" r="2.42"/><circle class="cls-8" cx="22.92" cy="6.5" r="2.42"/></g></g></g></svg>