<svg id="Headers" xmlns="http://www.w3.org/2000/svg" viewBox="0 0 109.5 97"><defs><style>.cls-1{fill:#fff;}.cls-1,.cls-10,.cls-3,.cls-4,.cls-5,.cls-6,.cls-7,.cls-9{stroke:#525b6b;}.cls-1,.cls-10,.cls-3,.cls-4,.cls-5,.cls-6,.cls-7,.cls-8,.cls-9{stroke-miterlimit:10;}.cls-2{font-size:5px;fill:#525b6b;font-family:Dosis Bold;font-weight:700;}.cls-3{fill:#f64747;}.cls-4{fill:#f5d76e;}.cls-5{fill:#87d37c;}.cls-6{fill:#efefef;}.cls-7{fill:#ea7171;}.cls-10,.cls-8{fill:none;}.cls-8{stroke:#6e7682;}.cls-9{fill:#7fe5a1;}.cls-10{stroke-width:2px;}</style></defs><title>homepage1</title><g id="Header_1" data-name="Header 1"><g id="Header"><path id="Placeholder" class="cls-1" d="M3.5,0.5H106a3,3,0,0,1,3,3v9a0,0,0,0,1,0,0H0.5a0,0,0,0,1,0,0v-9A3,3,0,0,1,3.5.5Z"/><text class="cls-2" transform="translate(45.49 8.41)">HEADER</text><g id="Circle_Buttons" data-name="Circle Buttons"><circle class="cls-3" cx="22.92" cy="6.5" r="2.42"/><circle class="cls-4" cx="9.08" cy="6.5" r="2.42"/><circle class="cls-5" cx="15.92" cy="6.5" r="2.42"/></g></g><g id="Body"><g id="Placeholder-2" data-name="Placeholder"><path class="cls-6" d="M0.5,12.5H109a0,0,0,0,1,0,0v83a1,1,0,0,1-1,1H1.5a1,1,0,0,1-1-1v-83a0,0,0,0,1,0,0Z"/></g><g id="Button"><rect class="cls-7" x="41.5" y="80.5" width="26" height="6" rx="0.96" ry="0.96"/></g><g id="Text"><line class="cls-8" x1="20.91" y1="70.12" x2="42.01" y2="70.12"/><line class="cls-8" x1="44.87" y1="70.12" x2="88.14" y2="70.12"/><line class="cls-8" x1="67.03" y1="74.37" x2="88.13" y2="74.37"/><line class="cls-8" x1="20.91" y1="74.37" x2="64.19" y2="74.37"/></g><g id="Image"><path class="cls-9" d="M120.11,99.5H61.94a0.5,0.5,0,0,1-.41-0.78L72.28,82.8a1,1,0,0,1,1.58-.11l10.71,12a0.5,0.5,0,0,0,.79-0.05l16.27-24.37a1,1,0,0,1,1.69,0l17.22,28.4A0.5,0.5,0,0,1,120.11,99.5Z" transform="translate(-36.5 -35.5)"/></g><g id="Menu"><line class="cls-10" x1="59.5" y1="25.5" x2="71.5" y2="25.5"/><line class="cls-10" x1="89.5" y1="25.5" x2="101.5" y2="25.5"/><line class="cls-10" x1="73.5" y1="25.5" x2="87.5" y2="25.5"/></g><g id="Logo"><line class="cls-10" x1="7.5" y1="25.5" x2="19.5" y2="25.5"/></g></g></g></svg>